# Wavefront .OBJ file for tesselated shape: node_6750-2 path: C:\Membrane Studies\two_node_octagon\Solidworks\node_6750.SLDPRT

g body_1
v 0.000000 0.010000 -0.027060
v 0.000000 0.000000 -0.027060
v -0.019134 0.000000 -0.019134
v -0.019134 0.010000 -0.019134
v -0.019134 0.010000 -0.019134
v -0.019134 0.000000 -0.019134
v -0.019134 0.000000 0.019134
v -0.019134 0.010000 0.019134
v -0.019134 0.010000 0.019134
v -0.019134 0.000000 0.019134
v 0.000000 0.000000 0.027060
v 0.000000 0.010000 0.027060
v 0.000000 0.010000 -0.027060
v 0.000000 0.010000 0.027060
v 0.019134 0.010000 0.019134
v -0.019134 0.010000 -0.019134
v -0.019134 0.010000 0.019134
v 0.019134 0.010000 -0.019134
v 0.000000 0.000000 -0.027060
v 0.000000 0.000000 0.027060
v -0.019134 0.000000 0.019134
v 0.019134 0.000000 -0.019134
v 0.019134 0.000000 0.019134
v -0.019134 0.000000 -0.019134
v 0.000000 0.010000 0.027060
v 0.000000 0.000000 0.027060
v 0.019134 0.000000 0.019134
v 0.019134 0.010000 0.019134
v 0.019134 0.010000 0.019134
v 0.019134 0.000000 0.019134
v 0.019134 0.000000 -0.019134
v 0.019134 0.010000 -0.019134
v 0.019134 0.010000 -0.019134
v 0.019134 0.000000 -0.019134
v 0.000000 0.000000 -0.027060
v 0.000000 0.010000 -0.027060
vn -0.383 0.000 -0.924
vn -0.383 0.000 -0.924
vn -0.383 0.000 -0.924
vn -0.383 0.000 -0.924
vn -1.000 0.000 0.000
vn -1.000 0.000 0.000
vn -1.000 0.000 0.000
vn -1.000 0.000 0.000
vn -0.383 0.000 0.924
vn -0.383 0.000 0.924
vn -0.383 0.000 0.924
vn -0.383 0.000 0.924
vn 0.000 1.000 0.000
vn 0.000 1.000 0.000
vn 0.000 1.000 0.000
vn 0.000 1.000 0.000
vn 0.000 1.000 0.000
vn 0.000 1.000 0.000
vn 0.000 -1.000 0.000
vn 0.000 -1.000 0.000
vn 0.000 -1.000 0.000
vn 0.000 -1.000 0.000
vn 0.000 -1.000 0.000
vn 0.000 -1.000 0.000
vn 0.383 0.000 0.924
vn 0.383 0.000 0.924
vn 0.383 0.000 0.924
vn 0.383 0.000 0.924
vn 1.000 0.000 0.000
vn 1.000 0.000 0.000
vn 1.000 0.000 0.000
vn 1.000 0.000 0.000
vn 0.383 0.000 -0.924
vn 0.383 0.000 -0.924
vn 0.383 0.000 -0.924
vn 0.383 0.000 -0.924
vt 0.0207 0.0000 0
vt 0.0207 -0.0100 0
vt 0.0000 -0.0100 0
vt 0.0000 0.0000 0
vt 0.0383 0.0000 0
vt 0.0383 -0.0100 0
vt 0.0000 -0.0100 0
vt 0.0000 0.0000 0
vt 0.0207 0.0000 0
vt 0.0207 -0.0100 0
vt 0.0000 -0.0100 0
vt 0.0000 0.0000 0
vt 0.0271 0.0000 0
vt -0.0271 0.0000 0
vt -0.0191 0.0191 0
vt 0.0191 -0.0191 0
vt -0.0191 -0.0191 0
vt 0.0191 0.0191 0
vt 0.0271 0.0000 0
vt -0.0271 0.0000 0
vt -0.0191 -0.0191 0
vt 0.0191 0.0191 0
vt -0.0191 0.0191 0
vt 0.0191 -0.0191 0
vt 0.0207 0.0000 0
vt 0.0207 -0.0100 0
vt 0.0000 -0.0100 0
vt 0.0000 0.0000 0
vt 0.0383 0.0000 0
vt 0.0383 -0.0100 0
vt 0.0000 -0.0100 0
vt 0.0000 0.0000 0
vt 0.0207 0.0000 0
vt 0.0207 -0.0100 0
vt 0.0000 -0.0100 0
vt 0.0000 0.0000 0
f 3/3/3 1/1/1 2/2/2
f 1/1/1 3/3/3 4/4/4
f 5/5/5 7/7/7 8/8/8
f 7/7/7 5/5/5 6/6/6
f 11/11/11 9/9/9 10/10/10
f 9/9/9 11/11/11 12/12/12
f 27/27/27 25/25/25 26/26/26
f 25/25/25 27/27/27 28/28/28
f 29/29/29 31/31/31 32/32/32
f 31/31/31 29/29/29 30/30/30
f 33/33/33 35/35/35 36/36/36
f 35/35/35 33/33/33 34/34/34
f 13/13/13 17/17/17 14/14/14
f 17/17/17 13/13/13 16/16/16
f 15/15/15 13/13/13 14/14/14
f 13/13/13 15/15/15 18/18/18
f 21/21/21 19/19/19 20/20/20
f 23/23/23 19/19/19 22/22/22
f 19/19/19 23/23/23 20/20/20
f 19/19/19 21/21/21 24/24/24
