# Wavefront .OBJ file for tesselated shape: Floor-1 path: C:\Users\Koki\Google Drive (67k.tanaka@gmail.com)\PycharmProjects\chrono_solidworks_learning\Origami_robot\CAD\Floor.SLDPRT

g body_1
v 1.000000 -0.095000 1.000000
v 1.000000 -0.095000 -1.000000
v 1.000000 0.005000 -1.000000
v 1.000000 0.005000 1.000000
v -1.000000 -0.095000 1.000000
v 1.000000 -0.095000 1.000000
v 1.000000 0.005000 1.000000
v -1.000000 0.005000 1.000000
v -1.000000 -0.095000 -1.000000
v -1.000000 -0.095000 1.000000
v -1.000000 0.005000 1.000000
v -1.000000 0.005000 -1.000000
v 1.000000 -0.095000 -1.000000
v -1.000000 -0.095000 -1.000000
v -1.000000 0.005000 -1.000000
v 1.000000 0.005000 -1.000000
v -1.000000 -0.095000 -1.000000
v 1.000000 -0.095000 -1.000000
v 1.000000 -0.095000 1.000000
v -1.000000 -0.095000 1.000000
v -1.000000 0.005000 1.000000
v 1.000000 0.005000 1.000000
v 1.000000 0.005000 -1.000000
v -1.000000 0.005000 -1.000000
vn 1.000 0.000 0.000
vn 1.000 0.000 0.000
vn 1.000 0.000 0.000
vn 1.000 0.000 0.000
vn 0.000 0.000 1.000
vn 0.000 0.000 1.000
vn 0.000 0.000 1.000
vn 0.000 0.000 1.000
vn -1.000 0.000 0.000
vn -1.000 0.000 0.000
vn -1.000 0.000 0.000
vn -1.000 0.000 0.000
vn 0.000 0.000 -1.000
vn 0.000 0.000 -1.000
vn 0.000 0.000 -1.000
vn 0.000 0.000 -1.000
vn 0.000 -1.000 0.000
vn 0.000 -1.000 0.000
vn 0.000 -1.000 0.000
vn 0.000 -1.000 0.000
vn 0.000 1.000 0.000
vn 0.000 1.000 0.000
vn 0.000 1.000 0.000
vn 0.000 1.000 0.000
vt 0.0000 0.0000 0
vt 2.0000 0.0000 0
vt 2.0000 0.1000 0
vt 0.0000 0.1000 0
vt 0.0000 0.0000 0
vt 2.0000 0.0000 0
vt 2.0000 0.1000 0
vt 0.0000 0.1000 0
vt -2.0000 0.0000 0
vt 0.0000 0.0000 0
vt 0.0000 0.1000 0
vt -2.0000 0.1000 0
vt -2.0000 0.0000 0
vt 0.0000 0.0000 0
vt 0.0000 0.1000 0
vt -2.0000 0.1000 0
vt 1.0000 -1.0000 0
vt 1.0000 1.0000 0
vt -1.0000 1.0000 0
vt -1.0000 -1.0000 0
vt -1.0000 -1.0000 0
vt -1.0000 1.0000 0
vt 1.0000 1.0000 0
vt 1.0000 -1.0000 0
f 1/1/1 3/3/3 4/4/4
f 3/3/3 1/1/1 2/2/2
f 5/5/5 7/7/7 8/8/8
f 7/7/7 5/5/5 6/6/6
f 11/11/11 9/9/9 10/10/10
f 9/9/9 11/11/11 12/12/12
f 13/13/13 15/15/15 16/16/16
f 15/15/15 13/13/13 14/14/14
f 19/19/19 17/17/17 18/18/18
f 17/17/17 19/19/19 20/20/20
f 21/21/21 23/23/23 24/24/24
f 23/23/23 21/21/21 22/22/22
