# Wavefront .OBJ file for tesselated shape: interior-20 path: D:\MMAE\540\final project\Simulations\CAD\interior.SLDPRT

g body_1
v 0.000000 0.080000 0.000000
v 0.002297 0.080000 0.012287
v 0.004516 0.080000 0.011656
v 0.006580 0.080000 0.010628
v 0.008421 0.080000 0.009238
v 0.009975 0.080000 0.007533
v 0.011190 0.080000 0.005572
v 0.012023 0.080000 0.003421
v 0.012447 0.080000 0.001153
v 0.012447 0.080000 -0.001153
v 0.012023 0.080000 -0.003421
v 0.011190 0.080000 -0.005572
v 0.009975 0.080000 -0.007533
v 0.008421 0.080000 -0.009238
v 0.006580 0.080000 -0.010628
v 0.004516 0.080000 -0.011656
v 0.002297 0.080000 -0.012287
v 0.000000 0.080000 -0.012500
v -0.002297 0.080000 -0.012287
v -0.004516 0.080000 -0.011656
v -0.006580 0.080000 -0.010628
v -0.008421 0.080000 -0.009238
v -0.009975 0.080000 -0.007533
v -0.011190 0.080000 -0.005572
v -0.012023 0.080000 -0.003421
v -0.012447 0.080000 -0.001153
v -0.012447 0.080000 0.001153
v -0.012023 0.080000 0.003421
v -0.011190 0.080000 0.005572
v -0.009975 0.080000 0.007533
v -0.008421 0.080000 0.009238
v -0.006580 0.080000 0.010628
v -0.004516 0.080000 0.011656
v -0.002297 0.080000 0.012287
v 0.000000 0.080000 0.012500
v 0.000000 0.000000 -0.012500
v 0.000000 0.080000 -0.012500
v 0.002297 0.080000 -0.012287
v 0.002297 0.000000 -0.012287
v 0.004516 0.080000 -0.011656
v 0.004516 0.000000 -0.011656
v 0.006580 0.080000 -0.010628
v 0.006580 0.000000 -0.010628
v 0.008421 0.080000 -0.009238
v 0.008421 0.000000 -0.009238
v 0.009975 0.080000 -0.007533
v 0.009975 0.000000 -0.007533
v 0.011190 0.080000 -0.005572
v 0.011190 0.000000 -0.005572
v 0.012023 0.080000 -0.003421
v 0.012023 0.000000 -0.003421
v 0.012447 0.080000 -0.001153
v 0.012447 0.000000 -0.001153
v 0.012447 0.080000 0.001153
v 0.012447 0.000000 0.001153
v 0.012023 0.080000 0.003421
v 0.012023 0.000000 0.003421
v 0.011190 0.080000 0.005572
v 0.011190 0.000000 0.005572
v 0.009975 0.080000 0.007533
v 0.009975 0.000000 0.007533
v 0.008421 0.080000 0.009238
v 0.008421 0.000000 0.009238
v 0.006580 0.080000 0.010628
v 0.006580 0.000000 0.010628
v 0.004516 0.080000 0.011656
v 0.004516 0.000000 0.011656
v 0.002297 0.080000 0.012287
v 0.002297 0.000000 0.012287
v 0.000000 0.080000 0.012500
v 0.000000 0.000000 0.012500
v -0.002297 0.080000 0.012287
v -0.002297 0.000000 0.012287
v -0.004516 0.080000 0.011656
v -0.004516 0.000000 0.011656
v -0.006580 0.080000 0.010628
v -0.006580 0.000000 0.010628
v -0.008421 0.080000 0.009238
v -0.008421 0.000000 0.009238
v -0.009975 0.080000 0.007533
v -0.009975 0.000000 0.007533
v -0.011190 0.080000 0.005572
v -0.011190 0.000000 0.005572
v -0.012023 0.080000 0.003421
v -0.012023 0.000000 0.003421
v -0.012447 0.080000 0.001153
v -0.012447 0.000000 0.001153
v -0.012447 0.080000 -0.001153
v -0.012447 0.000000 -0.001153
v -0.012023 0.080000 -0.003421
v -0.012023 0.000000 -0.003421
v -0.011190 0.080000 -0.005572
v -0.011190 0.000000 -0.005572
v -0.009975 0.080000 -0.007533
v -0.009975 0.000000 -0.007533
v -0.008421 0.080000 -0.009238
v -0.008421 0.000000 -0.009238
v -0.006580 0.080000 -0.010628
v -0.006580 0.000000 -0.010628
v -0.004516 0.080000 -0.011656
v -0.004516 0.000000 -0.011656
v -0.002297 0.080000 -0.012287
v -0.002297 0.000000 -0.012287
v 0.000000 0.000000 0.000000
v -0.002297 0.000000 0.012287
v -0.004516 0.000000 0.011656
v -0.006580 0.000000 0.010628
v -0.008421 0.000000 0.009238
v -0.009975 0.000000 0.007533
v -0.011190 0.000000 0.005572
v -0.012023 0.000000 0.003421
v -0.012447 0.000000 0.001153
v -0.012447 0.000000 -0.001153
v -0.012023 0.000000 -0.003421
v -0.011190 0.000000 -0.005572
v -0.009975 0.000000 -0.007533
v -0.008421 0.000000 -0.009238
v -0.006580 0.000000 -0.010628
v -0.004516 0.000000 -0.011656
v -0.002297 0.000000 -0.012287
v 0.000000 0.000000 -0.012500
v 0.002297 0.000000 -0.012287
v 0.004516 0.000000 -0.011656
v 0.006580 0.000000 -0.010628
v 0.008421 0.000000 -0.009238
v 0.009975 0.000000 -0.007533
v 0.011190 0.000000 -0.005572
v 0.012023 0.000000 -0.003421
v 0.012447 0.000000 -0.001153
v 0.012447 0.000000 0.001153
v 0.012023 0.000000 0.003421
v 0.011190 0.000000 0.005572
v 0.009975 0.000000 0.007533
v 0.008421 0.000000 0.009238
v 0.006580 0.000000 0.010628
v 0.004516 0.000000 0.011656
v 0.002297 0.000000 0.012287
v 0.000000 0.000000 0.012500
vn 0.000 1.000 0.000
vn 0.000 1.000 0.000
vn 0.000 1.000 0.000
vn 0.000 1.000 0.000
vn 0.000 1.000 0.000
vn 0.000 1.000 0.000
vn 0.000 1.000 0.000
vn 0.000 1.000 0.000
vn 0.000 1.000 0.000
vn 0.000 1.000 0.000
vn 0.000 1.000 0.000
vn 0.000 1.000 0.000
vn 0.000 1.000 0.000
vn 0.000 1.000 0.000
vn 0.000 1.000 0.000
vn 0.000 1.000 0.000
vn 0.000 1.000 0.000
vn 0.000 1.000 0.000
vn 0.000 1.000 0.000
vn 0.000 1.000 0.000
vn 0.000 1.000 0.000
vn 0.000 1.000 0.000
vn 0.000 1.000 0.000
vn 0.000 1.000 0.000
vn 0.000 1.000 0.000
vn 0.000 1.000 0.000
vn 0.000 1.000 0.000
vn 0.000 1.000 0.000
vn 0.000 1.000 0.000
vn 0.000 1.000 0.000
vn 0.000 1.000 0.000
vn 0.000 1.000 0.000
vn 0.000 1.000 0.000
vn 0.000 1.000 0.000
vn 0.000 1.000 0.000
vn 0.000 0.000 -1.000
vn 0.000 0.000 -1.000
vn 0.184 0.000 -0.983
vn 0.184 0.000 -0.983
vn 0.361 0.000 -0.932
vn 0.361 0.000 -0.932
vn 0.526 0.000 -0.850
vn 0.526 0.000 -0.850
vn 0.674 0.000 -0.739
vn 0.674 0.000 -0.739
vn 0.798 0.000 -0.603
vn 0.798 0.000 -0.603
vn 0.895 0.000 -0.446
vn 0.895 0.000 -0.446
vn 0.962 0.000 -0.274
vn 0.962 0.000 -0.274
vn 0.996 0.000 -0.092
vn 0.996 0.000 -0.092
vn 0.996 0.000 0.092
vn 0.996 0.000 0.092
vn 0.962 0.000 0.274
vn 0.962 0.000 0.274
vn 0.895 0.000 0.446
vn 0.895 0.000 0.446
vn 0.798 0.000 0.603
vn 0.798 0.000 0.603
vn 0.674 0.000 0.739
vn 0.674 0.000 0.739
vn 0.526 0.000 0.850
vn 0.526 0.000 0.850
vn 0.361 0.000 0.932
vn 0.361 0.000 0.932
vn 0.184 0.000 0.983
vn 0.184 0.000 0.983
vn 0.000 0.000 1.000
vn 0.000 0.000 1.000
vn -0.184 0.000 0.983
vn -0.184 0.000 0.983
vn -0.361 0.000 0.932
vn -0.361 0.000 0.932
vn -0.526 0.000 0.850
vn -0.526 0.000 0.850
vn -0.674 0.000 0.739
vn -0.674 0.000 0.739
vn -0.798 0.000 0.603
vn -0.798 0.000 0.603
vn -0.895 0.000 0.446
vn -0.895 0.000 0.446
vn -0.962 0.000 0.274
vn -0.962 0.000 0.274
vn -0.996 0.000 0.092
vn -0.996 0.000 0.092
vn -0.996 0.000 -0.092
vn -0.996 0.000 -0.092
vn -0.962 0.000 -0.274
vn -0.962 0.000 -0.274
vn -0.895 0.000 -0.446
vn -0.895 0.000 -0.446
vn -0.798 0.000 -0.603
vn -0.798 0.000 -0.603
vn -0.674 0.000 -0.739
vn -0.674 0.000 -0.739
vn -0.526 0.000 -0.850
vn -0.526 0.000 -0.850
vn -0.361 0.000 -0.932
vn -0.361 0.000 -0.932
vn -0.184 0.000 -0.983
vn -0.184 0.000 -0.983
vn 0.000 -1.000 0.000
vn 0.000 -1.000 0.000
vn 0.000 -1.000 0.000
vn 0.000 -1.000 0.000
vn 0.000 -1.000 0.000
vn 0.000 -1.000 0.000
vn 0.000 -1.000 0.000
vn 0.000 -1.000 0.000
vn 0.000 -1.000 0.000
vn 0.000 -1.000 0.000
vn 0.000 -1.000 0.000
vn 0.000 -1.000 0.000
vn 0.000 -1.000 0.000
vn 0.000 -1.000 0.000
vn 0.000 -1.000 0.000
vn 0.000 -1.000 0.000
vn 0.000 -1.000 0.000
vn 0.000 -1.000 0.000
vn 0.000 -1.000 0.000
vn 0.000 -1.000 0.000
vn 0.000 -1.000 0.000
vn 0.000 -1.000 0.000
vn 0.000 -1.000 0.000
vn 0.000 -1.000 0.000
vn 0.000 -1.000 0.000
vn 0.000 -1.000 0.000
vn 0.000 -1.000 0.000
vn 0.000 -1.000 0.000
vn 0.000 -1.000 0.000
vn 0.000 -1.000 0.000
vn 0.000 -1.000 0.000
vn 0.000 -1.000 0.000
vn 0.000 -1.000 0.000
vn 0.000 -1.000 0.000
vn 0.000 -1.000 0.000
vt 0.0000 0.0000 0
vt 0.0123 0.0023 0
vt 0.0117 0.0045 0
vt 0.0106 0.0066 0
vt 0.0092 0.0084 0
vt 0.0075 0.0100 0
vt 0.0056 0.0112 0
vt 0.0034 0.0120 0
vt 0.0012 0.0124 0
vt -0.0012 0.0124 0
vt -0.0034 0.0120 0
vt -0.0056 0.0112 0
vt -0.0075 0.0100 0
vt -0.0092 0.0084 0
vt -0.0106 0.0066 0
vt -0.0117 0.0045 0
vt -0.0123 0.0023 0
vt -0.0125 0.0000 0
vt -0.0123 -0.0023 0
vt -0.0117 -0.0045 0
vt -0.0106 -0.0066 0
vt -0.0092 -0.0084 0
vt -0.0075 -0.0100 0
vt -0.0056 -0.0112 0
vt -0.0034 -0.0120 0
vt -0.0012 -0.0124 0
vt 0.0012 -0.0124 0
vt 0.0034 -0.0120 0
vt 0.0056 -0.0112 0
vt 0.0075 -0.0100 0
vt 0.0092 -0.0084 0
vt 0.0106 -0.0066 0
vt 0.0117 -0.0045 0
vt 0.0123 -0.0023 0
vt 0.0125 0.0000 0
vt 6.2832 0.0800 0
vt 6.2832 0.0000 0
vt 6.4680 0.0000 0
vt 6.4680 0.0800 0
vt 0.3696 0.0000 0
vt 0.3696 0.0800 0
vt 0.5544 0.0000 0
vt 0.5544 0.0800 0
vt 0.7392 0.0000 0
vt 0.7392 0.0800 0
vt 0.9240 0.0000 0
vt 0.9240 0.0800 0
vt 1.1088 0.0000 0
vt 1.1088 0.0800 0
vt 1.2936 0.0000 0
vt 1.2936 0.0800 0
vt 1.4784 0.0000 0
vt 1.4784 0.0800 0
vt 1.6632 0.0000 0
vt 1.6632 0.0800 0
vt 1.8480 0.0000 0
vt 1.8480 0.0800 0
vt 2.0328 0.0000 0
vt 2.0328 0.0800 0
vt 2.2176 0.0000 0
vt 2.2176 0.0800 0
vt 2.4024 0.0000 0
vt 2.4024 0.0800 0
vt 2.5872 0.0000 0
vt 2.5872 0.0800 0
vt 2.7720 0.0000 0
vt 2.7720 0.0800 0
vt 2.9568 0.0000 0
vt 2.9568 0.0800 0
vt 3.1416 0.0000 0
vt 3.1416 0.0800 0
vt 3.3264 0.0000 0
vt 3.3264 0.0800 0
vt 3.5112 0.0000 0
vt 3.5112 0.0800 0
vt 3.6960 0.0000 0
vt 3.6960 0.0800 0
vt 3.8808 0.0000 0
vt 3.8808 0.0800 0
vt 4.0656 0.0000 0
vt 4.0656 0.0800 0
vt 4.2504 0.0000 0
vt 4.2504 0.0800 0
vt 4.4352 0.0000 0
vt 4.4352 0.0800 0
vt 4.6200 0.0000 0
vt 4.6200 0.0800 0
vt 4.8048 0.0000 0
vt 4.8048 0.0800 0
vt 4.9896 0.0000 0
vt 4.9896 0.0800 0
vt 5.1744 0.0000 0
vt 5.1744 0.0800 0
vt 5.3592 0.0000 0
vt 5.3592 0.0800 0
vt 5.5440 0.0000 0
vt 5.5440 0.0800 0
vt 5.7288 0.0000 0
vt 5.7288 0.0800 0
vt 5.9136 0.0000 0
vt 5.9136 0.0800 0
vt 6.0984 0.0000 0
vt 6.0984 0.0800 0
vt 0.0000 0.0000 0
vt 0.0123 -0.0023 0
vt 0.0117 -0.0045 0
vt 0.0106 -0.0066 0
vt 0.0092 -0.0084 0
vt 0.0075 -0.0100 0
vt 0.0056 -0.0112 0
vt 0.0034 -0.0120 0
vt 0.0012 -0.0124 0
vt -0.0012 -0.0124 0
vt -0.0034 -0.0120 0
vt -0.0056 -0.0112 0
vt -0.0075 -0.0100 0
vt -0.0092 -0.0084 0
vt -0.0106 -0.0066 0
vt -0.0117 -0.0045 0
vt -0.0123 -0.0023 0
vt -0.0125 0.0000 0
vt -0.0123 0.0023 0
vt -0.0117 0.0045 0
vt -0.0106 0.0066 0
vt -0.0092 0.0084 0
vt -0.0075 0.0100 0
vt -0.0056 0.0112 0
vt -0.0034 0.0120 0
vt -0.0012 0.0124 0
vt 0.0012 0.0124 0
vt 0.0034 0.0120 0
vt 0.0056 0.0112 0
vt 0.0075 0.0100 0
vt 0.0092 0.0084 0
vt 0.0106 0.0066 0
vt 0.0117 0.0045 0
vt 0.0123 0.0023 0
vt 0.0125 0.0000 0
f 37/37/37 103/103/103 102/102/102
f 101/101/101 102/102/102 103/103/103
f 99/99/99 100/100/100 101/101/101
f 97/97/97 98/98/98 99/99/99
f 95/95/95 96/96/96 97/97/97
f 93/93/93 94/94/94 95/95/95
f 91/91/91 92/92/92 93/93/93
f 89/89/89 90/90/90 91/91/91
f 87/87/87 88/88/88 89/89/89
f 85/85/85 86/86/86 87/87/87
f 83/83/83 84/84/84 85/85/85
f 81/81/81 82/82/82 83/83/83
f 79/79/79 80/80/80 81/81/81
f 77/77/77 78/78/78 79/79/79
f 75/75/75 76/76/76 77/77/77
f 73/73/73 74/74/74 75/75/75
f 71/71/71 72/72/72 73/73/73
f 69/69/69 70/70/70 71/71/71
f 67/67/67 68/68/68 69/69/69
f 65/65/65 66/66/66 67/67/67
f 63/63/63 64/64/64 65/65/65
f 61/61/61 62/62/62 63/63/63
f 59/59/59 60/60/60 61/61/61
f 57/57/57 58/58/58 59/59/59
f 55/55/55 56/56/56 57/57/57
f 53/53/53 54/54/54 55/55/55
f 51/51/51 52/52/52 53/53/53
f 49/49/49 50/50/50 51/51/51
f 47/47/47 48/48/48 49/49/49
f 45/45/45 46/46/46 47/47/47
f 43/43/43 44/44/44 45/45/45
f 41/41/41 42/42/42 43/43/43
f 39/39/39 40/40/40 41/41/41
f 36/36/36 38/38/38 39/39/39
f 102/102/102 101/101/101 100/100/100
f 100/100/100 99/99/99 98/98/98
f 98/98/98 97/97/97 96/96/96
f 96/96/96 95/95/95 94/94/94
f 94/94/94 93/93/93 92/92/92
f 92/92/92 91/91/91 90/90/90
f 90/90/90 89/89/89 88/88/88
f 88/88/88 87/87/87 86/86/86
f 86/86/86 85/85/85 84/84/84
f 84/84/84 83/83/83 82/82/82
f 82/82/82 81/81/81 80/80/80
f 80/80/80 79/79/79 78/78/78
f 78/78/78 77/77/77 76/76/76
f 76/76/76 75/75/75 74/74/74
f 74/74/74 73/73/73 72/72/72
f 72/72/72 71/71/71 70/70/70
f 70/70/70 69/69/69 68/68/68
f 68/68/68 67/67/67 66/66/66
f 66/66/66 65/65/65 64/64/64
f 64/64/64 63/63/63 62/62/62
f 62/62/62 61/61/61 60/60/60
f 60/60/60 59/59/59 58/58/58
f 58/58/58 57/57/57 56/56/56
f 56/56/56 55/55/55 54/54/54
f 54/54/54 53/53/53 52/52/52
f 52/52/52 51/51/51 50/50/50
f 50/50/50 49/49/49 48/48/48
f 48/48/48 47/47/47 46/46/46
f 46/46/46 45/45/45 44/44/44
f 44/44/44 43/43/43 42/42/42
f 42/42/42 41/41/41 40/40/40
f 40/40/40 39/39/39 38/38/38
f 38/38/38 36/36/36 37/37/37
f 103/103/103 37/37/37 36/36/36
f 1/1/1 34/34/34 35/35/35
f 1/1/1 33/33/33 34/34/34
f 1/1/1 32/32/32 33/33/33
f 1/1/1 31/31/31 32/32/32
f 1/1/1 30/30/30 31/31/31
f 1/1/1 29/29/29 30/30/30
f 1/1/1 28/28/28 29/29/29
f 1/1/1 27/27/27 28/28/28
f 1/1/1 26/26/26 27/27/27
f 1/1/1 25/25/25 26/26/26
f 1/1/1 24/24/24 25/25/25
f 1/1/1 23/23/23 24/24/24
f 1/1/1 22/22/22 23/23/23
f 1/1/1 21/21/21 22/22/22
f 1/1/1 20/20/20 21/21/21
f 1/1/1 19/19/19 20/20/20
f 1/1/1 18/18/18 19/19/19
f 1/1/1 17/17/17 18/18/18
f 1/1/1 16/16/16 17/17/17
f 1/1/1 15/15/15 16/16/16
f 1/1/1 14/14/14 15/15/15
f 1/1/1 13/13/13 14/14/14
f 1/1/1 12/12/12 13/13/13
f 1/1/1 11/11/11 12/12/12
f 1/1/1 10/10/10 11/11/11
f 1/1/1 9/9/9 10/10/10
f 1/1/1 8/8/8 9/9/9
f 1/1/1 7/7/7 8/8/8
f 1/1/1 6/6/6 7/7/7
f 1/1/1 5/5/5 6/6/6
f 1/1/1 4/4/4 5/5/5
f 1/1/1 3/3/3 4/4/4
f 1/1/1 35/35/35 2/2/2
f 3/3/3 1/1/1 2/2/2
f 104/104/104 138/138/138 105/105/105
f 104/104/104 106/106/106 107/107/107
f 104/104/104 107/107/107 108/108/108
f 104/104/104 108/108/108 109/109/109
f 104/104/104 109/109/109 110/110/110
f 104/104/104 110/110/110 111/111/111
f 104/104/104 111/111/111 112/112/112
f 104/104/104 112/112/112 113/113/113
f 104/104/104 113/113/113 114/114/114
f 104/104/104 114/114/114 115/115/115
f 104/104/104 115/115/115 116/116/116
f 104/104/104 116/116/116 117/117/117
f 104/104/104 117/117/117 118/118/118
f 104/104/104 118/118/118 119/119/119
f 104/104/104 119/119/119 120/120/120
f 104/104/104 120/120/120 121/121/121
f 104/104/104 121/121/121 122/122/122
f 104/104/104 122/122/122 123/123/123
f 104/104/104 123/123/123 124/124/124
f 104/104/104 124/124/124 125/125/125
f 104/104/104 125/125/125 126/126/126
f 104/104/104 126/126/126 127/127/127
f 104/104/104 127/127/127 128/128/128
f 104/104/104 128/128/128 129/129/129
f 104/104/104 129/129/129 130/130/130
f 104/104/104 130/130/130 131/131/131
f 104/104/104 131/131/131 132/132/132
f 104/104/104 132/132/132 133/133/133
f 104/104/104 133/133/133 134/134/134
f 104/104/104 134/134/134 135/135/135
f 104/104/104 135/135/135 136/136/136
f 104/104/104 136/136/136 137/137/137
f 104/104/104 137/137/137 138/138/138
f 106/106/106 104/104/104 105/105/105
